:SAMPLES-PER-SECOND 30
:FULLY-SPECIFIED
:DEGREES
217
root  -15.6896 38.6444 1.44996 -178.48 44.0387 176.013
RightUpLeg  -28.6395 -1.60456 -13.8394
RightLeg  32.6885 -9.24437 -6.5917
RightFoot  6.88017 -2.61635 16.5572
RightToes  -5.8209e-011 0 -3.6325e-017
Spine  20.3 -2.79164 -2.31782
Spine1  13.6313 -2.12514 -4.37527
HEad  -22.6505 30.6414 -12.5609
LeftShoulder1  0.787076 -0.0537006 -15.2903
LeftArm  14.1194 21.0302 -50.6888
LeftForeArm  123.439 -77.3559 -126.605
LeftHand  -3.2091 -5.63331 33.2174
RightShoulder  0.201099 -2.49499 13.3391
RightArm  -8.1139 -13.2025 55.8671
RightForeArm  93.633 78.1032 113.086
RightHand  -1.22017 3.50221 -16.1524
LeftUpLeg  -24.9561 -4.29014 7.74462
LeftLeg  45.5396 -1.75567 -1.42497
LeftFoot  1.09577 1.55702 -14.1135
LeftToes  -3.91115e-011 -2.2622e-010 9.51032e-012
218
root  -16.2412 37.5948 1.28767 -178.757 48.4801 176.785
RightUpLeg  -30.2564 -0.969578 -13.6746
RightLeg  33.7154 -5.09123 -3.88453
RightFoot  1.96194 -2.22224 18.9803
RightToes  -5.8209e-011 0 -3.6325e-017
Spine  20.3185 -2.27602 -3.73317
Spine1  13.7321 -2.10815 -3.18393
HEad  -24.4989 34.5689 -15.6758
LeftShoulder1  0.800835 -0.0194574 -15.9554
LeftArm  12.9177 21.8491 -51.2714
LeftForeArm  123.166 -77.9694 -123.295
LeftHand  -3.37993 -6.59031 32.2172
RightShoulder  0.306994 -2.03598 14.2377
RightArm  -9.56555 -15.0599 55.1609
RightForeArm  105.23 77.5616 120.544
RightHand  -1.44535 4.51335 -17.0392
LeftUpLeg  -22.968 -5.28997 12.0908
LeftLeg  50.1616 3.3378 4.74447
LeftFoot  -3.98441 0.626115 -9.40376
LeftToes  -3.91115e-011 -2.2622e-010 9.51032e-012
219
root  -16.7859 36.3294 1.04299 -179.052 51.9292 178.608
RightUpLeg  -31.8376 -1.38144 -12.7707
RightLeg  37.6134 -1.99819 -1.9113
RightFoot  -3.32581 -1.39744 19.3295
RightToes  -5.8209e-011 0 -3.6325e-017
Spine  20.2065 -2.37461 -4.20922
Spine1  14.6144 -2.76331 -1.4355
HEad  -26.138 39.0196 -19.0325
LeftShoulder1  0.963297 -0.447509 -17.697
LeftArm  10.2181 18.22 -53.3027
LeftForeArm  93.0058 -79.5645 -96.9591
LeftHand  -3.875 -6.18479 37.799
RightShoulder  0.49329 -1.31317 15.9535
RightArm  -12.2316 -15.7733 56.6283
RightForeArm  99.0025 78.6648 110.231
RightHand  -2.28515 6.71686 -21.8718
LeftUpLeg  -18.9904 -7.88074 16.5389
LeftLeg  54.4388 5.44177 8.53936
LeftFoot  -6.99569 0.30107 -6.92916
LeftToes  -3.91115e-011 -2.2622e-010 9.51032e-012
220
root  -17.4395 35.0416 0.676909 -179.439 54.1782 -178.506
RightUpLeg  -33.3226 -2.0979 -11.7726
RightLeg  43.702 0.122333 -0.165371
RightFoot  -7.32684 -0.707632 18.7226
RightToes  -5.8209e-011 0 -3.6325e-017
Spine  19.5966 -3.48627 -3.79579
Spine1  17.8264 -4.11277 -0.336632
HEad  -28.4839 43.6956 -22.7585
LeftShoulder1  1.36305 -1.63069 -20.0527
LeftArm  5.8453 10.6355 -55.4959
LeftForeArm  48.3238 -77.6783 -58.8326
LeftHand  -4.39558 -5.24706 45.8139
RightShoulder  0.6793 -0.685054 17.6558
RightArm  -15.4587 -13.3799 60.2843
RightForeArm  55.1976 78.2151 66.7316
RightHand  -3.50478 8.89945 -28.2284
LeftUpLeg  -13.3464 -12.6071 19.8678
LeftLeg  57.5626 3.37876 6.24096
LeftFoot  -10.8183 0.0867257 -10.9567
LeftToes  -3.91115e-011 -2.2622e-010 9.51032e-012
221
root  -18.2422 34.1393 0.192731 179.738 55.9324 -175.903
RightUpLeg  -33.5273 -2.79483 -11.6039
RightLeg  47.6199 2.17532 2.1852
RightFoot  -8.16126 -0.614038 19.8031
RightToes  -5.8209e-011 0 -3.6325e-017
Spine  18.2743 -4.78975 -4.47573
Spine1  21.9891 -5.8013 0.101794
HEad  -29.293 48.0557 -25.0833
LeftShoulder1  1.81806 -3.01134 -21.5788
LeftArm  1.66272 2.80013 -57.5769
LeftForeArm  27.8203 -74.162 -41.7912
LeftHand  -4.67299 -4.79157 50.2937
RightShoulder  0.85289 -0.0679938 18.4203
RightArm  -17.2917 -10.0929 63.5983
RightForeArm  13.4853 70.2419 32.6212
RightHand  -4.52039 9.84871 -33.8333
LeftUpLeg  -6.33909 -16.3151 20.6448
LeftLeg  57.6031 1.05029 2.36555
LeftFoot  -16.9883 -0.88439 -19.4073
LeftToes  -3.91115e-011 -2.2622e-010 9.51032e-012
222
root  -19.2507 34.0347 -0.377673 179.238 56.8411 -174.658
RightUpLeg  -31.9442 -3.21254 -12.6956
RightLeg  45.182 3.8714 3.81438
RightFoot  -5.78879 -1.12391 21.978
RightToes  -5.8209e-011 0 -3.6325e-017
Spine  16.6544 -5.50916 -6.46873
Spine1  24.1432 -7.52936 1.06984
HEad  -25.5072 50.8509 -23.5098
LeftShoulder1  1.90912 -3.40258 -21.2583
LeftArm  1.14336 -2.82606 -60.1573
LeftForeArm  27.3821 -73.5429 -39.7057
LeftHand  -4.60912 -4.86538 49.3347
RightShoulder  0.994706 0.585051 17.8575
RightArm  -17.0293 -11.0878 65.1967
RightForeArm  -5.21858 63.6757 24.0814
RightHand  -4.88858 9.60133 -36.8982
LeftUpLeg  -0.928387 -16.9147 19.3661
LeftLeg  53.8445 1.31274 2.3761
LeftFoot  -22.7987 -2.6212 -27.1866
LeftToes  -3.91115e-011 -2.2622e-010 9.51032e-012
223
root  -20.544 34.7348 -0.971403 -179.808 56.0982 -174.766
RightUpLeg  -29.2953 -2.87507 -14.6523
RightLeg  35.7304 2.81722 2.07703
RightFoot  -0.475149 -2.16732 22.5646
RightToes  -5.8209e-011 0 -3.6325e-017
Spine  14.8831 -5.87574 -7.4308
Spine1  23.6461 -8.59199 2.26663
HEad  -18.1776 50.8185 -17.9952
LeftShoulder1  1.51302 -2.30169 -19.5255
LeftArm  5.98131 -6.43918 -62.8693
LeftForeArm  37.2345 -75.3694 -45.2426
LeftHand  -4.2276 -5.04147 44.9998
RightShoulder  1.06508 1.13654 16.3237
RightArm  -16.4913 -17.111 66.2579
RightForeArm  -9.38592 64.06 25.3373
RightHand  -4.89906 9.11424 -38.1015
LeftUpLeg  -0.408838 -15.6428 17.7423
LeftLeg  48.2429 2.60846 3.59704
LeftFoot  -25.777 -3.70697 -29.9699
LeftToes  -3.91115e-011 -2.2622e-010 9.51032e-012
224
root  -21.9107 35.9391 -1.45016 -178.215 54.8107 -176.458
RightUpLeg  -26.5595 -1.91194 -16.7153
RightLeg  23.4048 -3.0805 -1.6198
RightFoot  8.27599 -3.51176 20.5614
RightToes  -5.8209e-011 0 -3.6325e-017
Spine  12.5631 -5.97841 -6.0441
Spine1  22.049 -7.60362 0.613271
HEad  -11.3703 48.1315 -10.807
LeftShoulder1  1.02904 -0.72391 -17.7234
LeftArm  13.3948 -8.56949 -63.9911
LeftForeArm  51.2685 -77.6203 -56.2438
LeftHand  -3.82151 -5.11654 40.833
RightShoulder  1.05451 1.45139 14.4794
RightArm  -17.6097 -22.6357 68.623
RightForeArm  -6.79754 66.4237 28.3266
RightHand  -4.77796 8.5992 -38.4907
LeftUpLeg  -3.40114 -13.6849 15.9925
LeftLeg  42.2916 2.3332 2.70441
LeftFoot  -24.2794 -3.06725 -27.7173
LeftToes  -3.91115e-011 -2.2622e-010 9.51032e-012
225
root  -23.1243 37.4448 -1.71966 -177.687 55.0046 -179.372
RightUpLeg  -24.1659 -3.87629 -16.9615
RightLeg  13.5521 -8.41428 -3.03611
RightFoot  19.206 -4.79243 17.8917
RightToes  -5.8209e-011 0 -3.6325e-017
Spine  10.5315 -5.39696 -2.92438
Spine1  20.5793 -4.16372 -5.31196
HEad  -6.78993 44.2223 -3.39085
LeftShoulder1  0.84372 -0.160346 -16.3091
LeftArm  18.714 -9.02656 -62.7459
LeftForeArm  62.0181 -78.8329 -67.7038
LeftHand  -3.54518 -5.08094 38.2194
RightShoulder  0.96136 1.54408 12.0145
RightArm  -18.5293 -22.1906 71.9541
RightForeArm  -8.2266 65.5126 27.177
RightHand  -4.56404 7.99894 -38.4229
LeftUpLeg  -5.4914 -10.4676 13.7207
LeftLeg  35.2584 1.38251 1.40932
LeftFoot  -17.651 -1.28088 -24.6567
LeftToes  -3.91115e-011 -2.2622e-010 9.51032e-012
226
root  -24.2148 39.0759 -1.79374 -178.657 56.4334 177.726
RightUpLeg  -21.7976 -10.43 -14.7412
RightLeg  8.36794 -7.15409 -2.32606
RightFoot  28.5202 -5.94466 16.8388
RightToes  -5.8209e-011 0 -3.6325e-017
Spine  10.4685 -4.24162 0.124333
Spine1  19.1448 0.015688 -12.4555
HEad  -3.57185 40.2053 3.58318
LeftShoulder1  0.891745 -0.635386 -14.6723
LeftArm  20.0902 -7.94335 -60.6242
LeftForeArm  61.1204 -78.8359 -70.1093
LeftHand  -3.19848 -4.66087 36.073
RightShoulder  0.733538 1.22556 8.00713
RightArm  -16.4262 -16.2167 74.7265
RightForeArm  -11.7785 63.8855 25.2117
RightHand  -4.49297 7.70957 -38.6398
LeftUpLeg  -4.94852 -5.74975 11.4423
LeftLeg  26.7783 1.04828 0.905008
LeftFoot  -6.88123 0.930221 -22.5988
LeftToes  -3.91115e-011 -2.2622e-010 9.51032e-012
227
root  -25.2289 40.5479 -1.77191 -179.556 57.0565 175.964
RightUpLeg  -19.1044 -12.157 -14.2449
RightLeg  7.26723 -6.9073 -1.26973
RightFoot  34.2085 -6.92978 17.0018
RightToes  -5.8209e-011 0 -3.6325e-017
Spine  11.5495 -3.46652 1.96217
Spine1  17.8888 2.73459 -17.5149
HEad  -0.739782 36.8454 9.42258
LeftShoulder1  0.928358 -1.1067 -13.1004
LeftArm  19.0729 -6.05475 -58.6978
LeftForeArm  52.0053 -78.1756 -63.8767
LeftHand  -2.81378 -3.90418 34.4601
RightShoulder  0.377935 -0.0572597 2.74277
RightArm  -12.7575 -7.93741 76.8323
RightForeArm  -7.9656 66.7112 29.1647
RightHand  -4.47473 7.67178 -38.5929
LeftUpLeg  -3.9977 -0.502405 9.91115
LeftLeg  18.5156 -0.399395 0.345964
LeftFoot  5.92904 3.34418 -21.8733
LeftToes  -3.91115e-011 -2.2622e-010 9.51032e-012
228
root  -26.1553 41.641 -1.78302 -178.898 56.2312 175.505
RightUpLeg  -17.2131 -11.3361 -13.896
RightLeg  8.2451 -6.4791 -1.50128
RightFoot  36.8254 -7.66208 17.6485
RightToes  -5.8209e-011 0 -3.6325e-017
Spine  11.7832 -3.63225 3.05488
Spine1  16.6844 3.41933 -20.2353
HEad  2.52048 34.7081 14.2036
LeftShoulder1  0.931927 -1.27686 -12.4022
LeftArm  17.4025 -2.88099 -56.1622
LeftForeArm  47.5962 -77.8019 -61.0407
LeftHand  -2.6725 -3.3659 34.705
RightShoulder  0.070199 -2.41094 -2.7177
RightArm  -10.2394 1.08377 78.7276
RightForeArm  4.83745 72.7058 41.8864
RightHand  -4.20495 7.27277 -37.5027
LeftUpLeg  -4.68835 3.82541 8.87508
LeftLeg  12.3195 -3.12214 -0.0204723
LeftFoot  16.7493 5.60909 -22.5934
LeftToes  -3.91115e-011 -2.2622e-010 9.51032e-012
229
root  -26.9771 42.284 -1.87677 -177.563 55.3133 175.529
RightUpLeg  -16.5673 -10.3692 -13.4088
RightLeg  11.2827 -6.99659 -2.14538
RightFoot  37.0656 -7.8881 18.0482
RightToes  -5.8209e-011 0 -3.6325e-017
Spine  11.4806 -4.20432 3.83589
Spine1  14.2322 2.92884 -21.8609
HEad  6.75989 33.3292 18.6422
LeftShoulder1  1.00352 -1.68232 -12.2516
LeftArm  16.0087 2.89517 -52.8561
LeftForeArm  55.9806 -78.5808 -70.522
LeftHand  -2.76985 -3.33524 36.0049
RightShoulder  -0.0224382 -5.10503 -7.86544
RightArm  -8.50155 9.72225 80.5425
RightForeArm  22.4792 76.8275 62.635
RightHand  -4.05054 6.90378 -37.229
LeftUpLeg  -5.99736 4.37573 8.11825
LeftLeg  9.14703 -1.09014 0.198188
LeftFoot  21.6907 6.40999 -21.8704
LeftToes  -3.91115e-011 -2.2622e-010 9.51032e-012
230
root  -27.714 42.5329 -2.01289 -176.728 55.2841 175.913
RightUpLeg  -15.8555 -10.1734 -12.7074
RightLeg  15.4158 -8.17929 -2.80375
RightFoot  35.5252 -7.34003 17.4261
RightToes  -5.8209e-011 0 -3.6325e-017
Spine  11.8548 -4.33038 4.37307
Spine1  10.4325 2.40411 -22.9244
HEad  11.1402 31.6149 22.5826
LeftShoulder1  1.13256 -2.50291 -11.7164
LeftArm  15.8494 10.2013 -50.3136
LeftForeArm  74.9286 -79.2386 -89.6661
LeftHand  -2.82235 -3.57953 35.7096
RightShoulder  0.0882368 -7.22046 -12.3383
RightArm  -6.86108 15.7433 81.673
RightForeArm  36.9159 77.9946 81.0863
RightHand  -4.22464 7.091 -38.1734
LeftUpLeg  -5.951 4.36296 7.80738
LeftLeg  9.10417 5.15103 1.31458
LeftFoot  21.7813 5.0597 -17.3317
LeftToes  -3.91115e-011 -2.2622e-010 9.51032e-012
231
root  -28.3992 42.4408 -2.17677 -175.658 55.4028 177.491
RightUpLeg  -14.3749 -10.0668 -11.3572
RightLeg  19.0598 -9.35567 -3.77617
RightFoot  32.1039 -6.28802 16.2674
RightToes  -5.8209e-011 0 -3.6325e-017
Spine  12.2028 -3.84977 5.02535
Spine1  7.37011 2.30245 -22.7443
HEad  13.8472 29.5304 24.7932
LeftShoulder1  1.23345 -3.31579 -10.8559
LeftArm  17.0784 15.9282 -49.3194
LeftForeArm  90.8624 -78.9215 -104.876
LeftHand  -2.60043 -3.56084 33.1121
RightShoulder  0.231354 -8.2083 -15.2163
RightArm  -6.17894 18.0225 81.1822
RightForeArm  42.2784 78.0302 89.5663
RightHand  -4.19885 7.0194 -38.1528
LeftUpLeg  -4.27627 4.96717 8.44625
LeftLeg  10.6391 12.2824 3.06887
LeftFoot  20.5167 3.66801 -13.2492
LeftToes  -3.91115e-011 -2.2622e-010 9.51032e-012
